<?xml version="1.0" encoding="UTF-8"?>
<svg id="Layer_1" data-name="Layer 1" xmlns="http://www.w3.org/2000/svg" viewBox="0 0 552.86 353.4">
  <defs>
    <style>
      .cls-1 {
        fill: #2f2f2f;
      }
    </style>
  </defs>
  <g>
    <path class="cls-1" d="M334.44,176.3h-2.54c-3.51,0-5.4,1.27-5.4,4.08v9.08h-9.21v-8.99c0-2.76-2.06-4.17-5.57-4.17h-2.33s0,.05,0,.07v3.92s0,0,0,0v26.72h2.5c3.55,0,5.4-1.23,5.4-4.08v-9.26h9.21v9.17c0,2.81,2.06,4.17,5.62,4.17h2.31v-30.71Z"/>
    <path class="cls-1" d="M356.9,179.16c-.7-1.84-2.59-2.85-5.4-2.85h-3.39c-.05.24-1.17,3.51-1.26,3.82l-8.95,26.89h4.43l2.9-8.55h10.7l2.41,6.01c.7,1.8,2.54,2.54,5.35,2.54l3.99-.05-10.79-27.81ZM346.55,194.25l3.64-10.57,4.21,10.57h-7.85Z"/>
    <path class="cls-1" d="M370.64,176.3c-2.41,0-3.75,1.55-4.08,4.2h10.14v26.51h2.5c3.51,0,5.4-1.27,5.4-4.08v-22.42h6.23c2.42,0,3.76-1.54,4.09-4.21h-24.27Z"/>
    <path class="cls-1" d="M406.79,180.47c0-2.76-2.06-4.17-5.57-4.17h-2.3l-.03,26.54c0,2.81,2.06,4.17,5.57,4.17h2.32v-26.54Z"/>
    <path class="cls-1" d="M412.54,176.3v6.08s0,.02,0,.03v24.6h2.54c3.55,0,5.4-1.27,5.4-4.08v-8.99h8.77v-4.17h-8.77v-9.26l9.04-.04c2.42.04,3.76-1.52,4.08-4.16h-21.06Z"/>
  </g>
  <g>
    <path class="cls-1" d="M273.16,183.98c-1.57-.65-4.01-.6-4.91,2.54-.09.3-.08.63-.12.94-.08.65-.13,1.31-.06,1.97.02.18.06.35.09.53,2.17-.66,5.16-3.15,6.57-4.29-.37-.83-.73-1.33-1.58-1.68Z"/>
    <path class="cls-1" d="M286.06,190.77c-.59-.56-1.2-1.1-1.82-1.62-1.5-1.27-3.09-2.46-4.66-3.65-.71-.54-1.73-.3-2.14.49-.36.69-.73,1.4-1.05,1.91-.6.96-1.87,3.02-3.02,4.62-.66.92-.03,2.21,1.1,2.26,1.26.06,2.61.03,3.69-.03,2.81-.15,4.92-.53,7.25-1.52.09-.04.17-.08.26-.11.92-.42,1.13-1.63.4-2.33,0,0,0,0-.01-.01Z"/>
    <path class="cls-1" d="M292.41,183.33c-.15-.21-.49-.62-.76-.93v-6.55c0-3.48-2.82-6.3-6.3-6.3h-8.78c-.06-.07-.12-.14-.18-.2-.2-.23-.39-.44-.46-.53-.02-.03-.06-.04-.09-.04h0c-.17,0-.63.47-.91.78h-20.62v21.48c-.23-.12-.47-.25-.58-.35l-.15-.13.02,11.09h.09c.1,0,.38,0,.69,0,.47,2.95,3.01,5.2,6.09,5.2h31.17v-15.94c.5-1.2,1.3-3.45,1.41-4.53.09-.88-.03-2.2-.64-3.05ZM292.87,186.36c-.1,1.04-.86,3.2-1.36,4.4-1.59,3.53-3.7,7.26-6.69,9.74-2.21,1.84-4.97,2.98-7.81,3.42-2.84.44-5.77.19-8.56-.55-1.24-.33-2.52-.78-3.47-1.67-.76-.71-1.15-1.83-1.38-2.83-2.05,1.35-5.31,2.32-9.26,2.57,0,0,0,0,0,0-.23,0-.44,0-.57,0l-.02-10.53c.15.1.35.2.54.3h0c1.05.69,1.95.72,3.65,1.03,1.92.21,3.84-.03,5.72-.49.02-.08.03-.15.05-.23.37-1.51.99-2.92,1.68-4.3,1.16-2.32,2.48-4.61,4.02-6.69.52-.71,1.08-1.39,1.7-2-.05-.06-.1-.13-.15-.19-.22-.28.17-1.23.29-1.51.47-1.08,1.07-2.89,1.65-3.91.58-1.01,1.2-2.04,1.89-2.98-.03.04,0,0,.07-.09.28-.35.77-.83.93-.91.09.1.26.3.44.5.16.18.34.38.47.53.4.51.81,1.03,1.14,1.37,2.45,2.6,5.35,4.7,8.18,6.85,1.41,1.07,3.09,2.14,4.42,3.31.25.22.5.44.76.67.24.24.84.95,1.04,1.23.58.8.69,2.08.61,2.92Z"/>
  </g>
  <g>
    <path class="cls-1" d="M191.28,171.52c.31.36.63.72.94,1.08.06.07.12.13.18.2-.36.54-.7,1.09-1.01,1.64-.46.8-.92,1.62-1.29,2.47-.11.25-.49.87-.34,1.14.45.78,1.06,1.43,1.65,2.1.31.36.63.72.94,1.08.28.31.61.63.86.97,0,.05,0,.1.02.15.01.03.03.03.06.02.31-.07.68-.67.82-.86.44-.61.84-1.26,1.22-1.9.43-.72.85-1.45,1.21-2.2.12-.24.23-.48.35-.72.15-.31.27-.63.36-.96,0-.06,0-.11-.02-.17,0,0,0,0,0,0,0,0,0,0,0,0-.1-.35-.53-.69-.75-.93-.34-.39-.69-.79-1.03-1.18-.35-.4-.7-.79-1.04-1.2.27-.41.54-.83.79-1.26.43-.72.85-1.45,1.22-2.2.12-.24.23-.48.35-.72.15-.31.27-.63.36-.96,0-.06,0-.11-.02-.17,0,0,0,0,0,0,0,0,0,0,0,0-.1-.35-.53-.69-.75-.93-.34-.39-.69-.79-1.03-1.18-.62-.7-1.27-1.39-1.74-2.21-.08-.13-.78.81-.83.87-.54.74-1.03,1.55-1.48,2.34-.46.8-.92,1.62-1.29,2.47-.11.25-.49.87-.34,1.14.45.78,1.06,1.43,1.65,2.1Z"/>
    <path class="cls-1" d="M178.31,176.1l.94,1.08c.28.31.61.63.86.97,0,.05,0,.1.02.15.01.03.03.03.06.02.31-.07.68-.67.82-.86.44-.61.84-1.26,1.22-1.9.43-.72.85-1.45,1.21-2.2.12-.24.23-.48.35-.72.15-.31.27-.63.36-.96,0-.06,0-.11-.02-.17,0,0,0,0,0,0,0,0,0,0,0,0-.1-.35-.53-.69-.75-.93-.34-.39-.69-.79-1.03-1.18-.62-.7-1.27-1.39-1.74-2.21-.08-.13-.78.81-.83.87-.54.74-1.03,1.55-1.48,2.34-.46.8-.92,1.62-1.29,2.47-.11.25-.49.87-.34,1.14.45.78,1.06,1.43,1.65,2.1Z"/>
    <path class="cls-1" d="M236.92,190.2c-.41-.57-.99-1.04-1.52-1.5-1.08-.95-2.44-1.82-3.59-2.69-2.3-1.75-4.65-3.45-6.64-5.56-.48-.51-1.2-1.47-1.63-2.02-.11-.14-.94,1.03-.84.88-.56.77-1.06,1.6-1.53,2.42-.47.83-.96,2.3-1.34,3.17-.1.23-.41.99-.23,1.22h0c.07.09.06.21-.02.29-.45.46-.86.96-1.25,1.48-1.25,1.69-2.33,3.55-3.26,5.43-.56,1.12-1.07,2.27-1.37,3.49,0,.02,0,.04-.01.05-.02.08-.08.15-.16.16-1.47.35-2.99.53-4.5.37,0,0-.01,0-.02,0-1.71-.31-2.42-.27-3.61-1.34-1-.91-1.45-2.21-1.63-3.53-.12-1.16-.13-2.34-.13-3.51,0-.02,0-.04,0-.06,0-.02,0-.03.01-.05,0-.02,0-.04,0-.06v-23.96c0-2.26-.06-.15-.06-2.41,0-.45-.42.1-.51.21-.54.62-3.63,5.63-3.91,6.28-.01.03-.02.06-.02.09,0,7.99.09,12.22.09,20.2v5.07s0,.04,0,.06c0,.02-.01.04-.02.06,0,.02,0,.04,0,.06.02,1.23.02,2.45.05,3.68.02,1.18.09,2.41.52,3.52.76,1.96,2.64,3.23,4.85,3.21,3.69-.04,6.76-.81,8.69-1.98.13-.08.29-.01.33.13.19.73.5,1.49,1.05,2,.77.72,1.81,1.09,2.81,1.36,2.26.6,4.63.8,6.94.45,2.31-.35,4.54-1.28,6.34-2.77,2.51-2.09,4.26-5.26,5.56-8.21.38-.87.94-2.31,1.04-3.26.08-.76-.05-1.79-.51-2.42ZM217.28,195.28c0-.06-.02-.12-.03-.18-.05-.53-.01-1.07.05-1.6.03-.25.03-.52.1-.76.73-2.55,2.71-2.59,3.98-2.06.64.27.93.63,1.21,1.21.04.09.02.2-.06.26-1.13.92-3.28,2.68-4.95,3.29-.13.05-.27-.03-.29-.17ZM232.59,197.56c-.41.23-.84.44-1.27.63-1.9.8-3.6,1.11-5.88,1.24-1.43.08-3.44.09-4.77-.17-.17-.03-.23-.24-.12-.36,1.05-1.15,2.77-3.95,3.45-5.03.42-.68.95-1.78,1.37-2.55.06-.12.22-.15.33-.07,1.57,1.2,3.17,2.37,4.67,3.64.5.43,1,.86,1.48,1.32.35.33.65.68.84,1.08.05.1,0,.23-.09.28Z"/>
    <path class="cls-1" d="M197.73,188.24c-.25-1.14-.62-2.25-1.11-3.31-.07-.15-.89.88-.9.89-.59.76-1.13,1.59-1.63,2.41-.51.83-1.02,1.67-1.43,2.55-.13.28-.53.88-.39,1.19.27.58.65,1.62.86,2.24,0,0,0,.01-.01.02-.84.36-6.64,2.05-8.76,2.49-1.09.23-2.67.4-3.22.38.31-.21,1.94-1.96,2.82-3.21,1.14-1.64,2.31-3.57,3.17-5.37.33-.69.44-1.51.52-2.27.14-1.3-.27-2.23-.58-3.09-.61-1.68-2.71-3.14-4.54-2.69-1.04.25-1.71.73-2.47,1.46-1.2,1.14-2.26,2.53-3.26,3.88-1,1.35-1.75,2.98-2.4,4.53-.34.8-.64,1.62-.87,2.45-.12.42-.22.84-.3,1.27-.08.42-.07.84-.16,1.25-10.25,3.74-21.84,4.76-32.66,4.54-8.86-.18-17.71-.74-26.58-.7.06,0,2.43,2.72,6.51,4.41,4.6,1.91,9.77,2.7,14.74,3.19,2.57.23,5.14.31,7.72.28,1.85-.02,3.71-.03,5.56-.15,2.69-.17,5.53-.26,8.2-.58,5.5-.66,7.07-.95,10.51-2.1,1.27-.42,3.8-1.64,5-2.23.29.65.69,1.22,1.2,1.67.18.27.41.5.73.64.14.07.29.11.45.14.71.34,1.51.53,2.36.52,1.92-.02,3.85-.23,5.7-.74,1.59-.44,4.09-1.14,5.67-1.92,1.28-.38,2.35-.84,3.7-1.47.47-.22.96-.41,1.36-.75.68-.59,2.09-2.54,2.59-3.27.89-1.32,1.2-2.19,1.89-3.63.37-.77.36-2.3.3-3.15-.05-.6-.15-1.19-.27-1.77ZM176.51,194.12s-.06.03-.08.04c-.05-1.09-.03-2.21.06-3.28.05-.63.14-1.25.28-1.87.02-.09.04-.18.07-.27.43-.35.89-.65,1.4-.87,1.12-.41,2.31-.27,3.24.51.71.59,1.17,1.43,1.39,2.32-1.08.65-2.22,1.2-3.35,1.78-1.02.52-2,1.12-3.01,1.65Z"/>
  </g>
</svg>